<svg width="31" height="130" viewBox="0 0 31 130" fill="none" xmlns="http://www.w3.org/2000/svg">
<g clip-path="url(#clip0_500_34777)">
<path d="M1 0H0V1.01H1V0Z" fill="#8A8A8A"/>
<path d="M5 0H4V1.01H5V0Z" fill="#8A8A8A"/>
<path d="M9 0H8V1.01H9V0Z" fill="#8A8A8A"/>
<path d="M13 0H12V1.01H13V0Z" fill="#8A8A8A"/>
<path d="M17 0H16V1.01H17V0Z" fill="#8A8A8A"/>
<path d="M21 0H20V1.01H21V0Z" fill="#8A8A8A"/>
<path d="M25 0H24V1.01H25V0Z" fill="#8A8A8A"/>
<path d="M29 0H28V1.01H29V0Z" fill="#8A8A8A"/>
<path d="M3 2.02002H2V3.03002H3V2.02002Z" fill="#8A8A8A"/>
<path d="M7 2.02002H6V3.03002H7V2.02002Z" fill="#8A8A8A"/>
<path d="M11 2.02002H10V3.03002H11V2.02002Z" fill="#8A8A8A"/>
<path d="M15 2.02002H14V3.03002H15V2.02002Z" fill="#8A8A8A"/>
<path d="M19 2.02002H18V3.03002H19V2.02002Z" fill="#8A8A8A"/>
<path d="M23 2.02002H22V3.03002H23V2.02002Z" fill="#8A8A8A"/>
<path d="M27 2.02002H26V3.03002H27V2.02002Z" fill="#8A8A8A"/>
<path d="M31 2.02002H30V3.03002H31V2.02002Z" fill="#8A8A8A"/>
<path d="M1 4.03003H0V5.04003H1V4.03003Z" fill="#8A8A8A"/>
<path d="M5 4.03003H4V5.04003H5V4.03003Z" fill="#8A8A8A"/>
<path d="M9 4.03003H8V5.04003H9V4.03003Z" fill="#8A8A8A"/>
<path d="M13 4.03003H12V5.04003H13V4.03003Z" fill="#8A8A8A"/>
<path d="M17 4.03003H16V5.04003H17V4.03003Z" fill="#8A8A8A"/>
<path d="M21 4.03003H20V5.04003H21V4.03003Z" fill="#8A8A8A"/>
<path d="M25 4.03003H24V5.04003H25V4.03003Z" fill="#8A8A8A"/>
<path d="M29 4.03003H28V5.04003H29V4.03003Z" fill="#8A8A8A"/>
<path d="M3 6.05005H2V7.06005H3V6.05005Z" fill="#8A8A8A"/>
<path d="M7 6.05005H6V7.06005H7V6.05005Z" fill="#8A8A8A"/>
<path d="M11 6.05005H10V7.06005H11V6.05005Z" fill="#8A8A8A"/>
<path d="M15 6.05005H14V7.06005H15V6.05005Z" fill="#8A8A8A"/>
<path d="M19 6.05005H18V7.06005H19V6.05005Z" fill="#8A8A8A"/>
<path d="M23 6.05005H22V7.06005H23V6.05005Z" fill="#8A8A8A"/>
<path d="M27 6.05005H26V7.06005H27V6.05005Z" fill="#8A8A8A"/>
<path d="M31 6.05005H30V7.06005H31V6.05005Z" fill="#8A8A8A"/>
<path d="M1 8.06006H0V9.07006H1V8.06006Z" fill="#8A8A8A"/>
<path d="M5 8.06006H4V9.07006H5V8.06006Z" fill="#8A8A8A"/>
<path d="M9 8.06006H8V9.07006H9V8.06006Z" fill="#8A8A8A"/>
<path d="M13 8.06006H12V9.07006H13V8.06006Z" fill="#8A8A8A"/>
<path d="M17 8.06006H16V9.07006H17V8.06006Z" fill="#8A8A8A"/>
<path d="M21 8.06006H20V9.07006H21V8.06006Z" fill="#8A8A8A"/>
<path d="M25 8.06006H24V9.07006H25V8.06006Z" fill="#8A8A8A"/>
<path d="M29 8.06006H28V9.07006H29V8.06006Z" fill="#8A8A8A"/>
<path d="M3 10.0801H2V11.0901H3V10.0801Z" fill="#8A8A8A"/>
<path d="M7 10.0801H6V11.0901H7V10.0801Z" fill="#8A8A8A"/>
<path d="M11 10.0801H10V11.0901H11V10.0801Z" fill="#8A8A8A"/>
<path d="M15 10.0801H14V11.0901H15V10.0801Z" fill="#8A8A8A"/>
<path d="M19 10.0801H18V11.0901H19V10.0801Z" fill="#8A8A8A"/>
<path d="M23 10.0801H22V11.0901H23V10.0801Z" fill="#8A8A8A"/>
<path d="M27 10.0801H26V11.0901H27V10.0801Z" fill="#8A8A8A"/>
<path d="M31 10.0801H30V11.0901H31V10.0801Z" fill="#8A8A8A"/>
<path d="M1 12.0901H0V13.1001H1V12.0901Z" fill="#8A8A8A"/>
<path d="M5 12.0901H4V13.1001H5V12.0901Z" fill="#8A8A8A"/>
<path d="M9 12.0901H8V13.1001H9V12.0901Z" fill="#8A8A8A"/>
<path d="M13 12.0901H12V13.1001H13V12.0901Z" fill="#8A8A8A"/>
<path d="M17 12.0901H16V13.1001H17V12.0901Z" fill="#8A8A8A"/>
<path d="M21 12.0901H20V13.1001H21V12.0901Z" fill="#8A8A8A"/>
<path d="M25 12.0901H24V13.1001H25V12.0901Z" fill="#8A8A8A"/>
<path d="M29 12.0901H28V13.1001H29V12.0901Z" fill="#8A8A8A"/>
<path d="M3 14.1101H2V15.1201H3V14.1101Z" fill="#8A8A8A"/>
<path d="M7 14.1101H6V15.1201H7V14.1101Z" fill="#8A8A8A"/>
<path d="M11 14.1101H10V15.1201H11V14.1101Z" fill="#8A8A8A"/>
<path d="M15 14.1101H14V15.1201H15V14.1101Z" fill="#8A8A8A"/>
<path d="M19 14.1101H18V15.1201H19V14.1101Z" fill="#8A8A8A"/>
<path d="M23 14.1101H22V15.1201H23V14.1101Z" fill="#8A8A8A"/>
<path d="M27 14.1101H26V15.1201H27V14.1101Z" fill="#8A8A8A"/>
<path d="M31 14.1101H30V15.1201H31V14.1101Z" fill="#8A8A8A"/>
<path d="M1 16.1201H0V17.1301H1V16.1201Z" fill="#8A8A8A"/>
<path d="M5 16.1201H4V17.1301H5V16.1201Z" fill="#8A8A8A"/>
<path d="M9 16.1201H8V17.1301H9V16.1201Z" fill="#8A8A8A"/>
<path d="M13 16.1201H12V17.1301H13V16.1201Z" fill="#8A8A8A"/>
<path d="M17 16.1201H16V17.1301H17V16.1201Z" fill="#8A8A8A"/>
<path d="M21 16.1201H20V17.1301H21V16.1201Z" fill="#8A8A8A"/>
<path d="M25 16.1201H24V17.1301H25V16.1201Z" fill="#8A8A8A"/>
<path d="M29 16.1201H28V17.1301H29V16.1201Z" fill="#8A8A8A"/>
<path d="M3 18.1399H2V19.1499H3V18.1399Z" fill="#8A8A8A"/>
<path d="M7 18.1399H6V19.1499H7V18.1399Z" fill="#8A8A8A"/>
<path d="M11 18.1399H10V19.1499H11V18.1399Z" fill="#8A8A8A"/>
<path d="M15 18.1399H14V19.1499H15V18.1399Z" fill="#8A8A8A"/>
<path d="M19 18.1399H18V19.1499H19V18.1399Z" fill="#8A8A8A"/>
<path d="M23 18.1399H22V19.1499H23V18.1399Z" fill="#8A8A8A"/>
<path d="M27 18.1399H26V19.1499H27V18.1399Z" fill="#8A8A8A"/>
<path d="M31 18.1399H30V19.1499H31V18.1399Z" fill="#8A8A8A"/>
<path d="M1 20.1499H0V21.1599H1V20.1499Z" fill="#8A8A8A"/>
<path d="M5 20.1499H4V21.1599H5V20.1499Z" fill="#8A8A8A"/>
<path d="M9 20.1499H8V21.1599H9V20.1499Z" fill="#8A8A8A"/>
<path d="M13 20.1499H12V21.1599H13V20.1499Z" fill="#8A8A8A"/>
<path d="M17 20.1499H16V21.1599H17V20.1499Z" fill="#8A8A8A"/>
<path d="M21 20.1499H20V21.1599H21V20.1499Z" fill="#8A8A8A"/>
<path d="M25 20.1499H24V21.1599H25V20.1499Z" fill="#8A8A8A"/>
<path d="M29 20.1499H28V21.1599H29V20.1499Z" fill="#8A8A8A"/>
<path d="M3 22.1699H2V23.1799H3V22.1699Z" fill="#8A8A8A"/>
<path d="M7 22.1699H6V23.1799H7V22.1699Z" fill="#8A8A8A"/>
<path d="M11 22.1699H10V23.1799H11V22.1699Z" fill="#8A8A8A"/>
<path d="M15 22.1699H14V23.1799H15V22.1699Z" fill="#8A8A8A"/>
<path d="M19 22.1699H18V23.1799H19V22.1699Z" fill="#8A8A8A"/>
<path d="M23 22.1699H22V23.1799H23V22.1699Z" fill="#8A8A8A"/>
<path d="M27 22.1699H26V23.1799H27V22.1699Z" fill="#8A8A8A"/>
<path d="M31 22.1699H30V23.1799H31V22.1699Z" fill="#8A8A8A"/>
<path d="M1 24.1799H0V25.1899H1V24.1799Z" fill="#8A8A8A"/>
<path d="M5 24.1799H4V25.1899H5V24.1799Z" fill="#8A8A8A"/>
<path d="M9 24.1799H8V25.1899H9V24.1799Z" fill="#8A8A8A"/>
<path d="M13 24.1799H12V25.1899H13V24.1799Z" fill="#8A8A8A"/>
<path d="M17 24.1799H16V25.1899H17V24.1799Z" fill="#8A8A8A"/>
<path d="M21 24.1799H20V25.1899H21V24.1799Z" fill="#8A8A8A"/>
<path d="M25 24.1799H24V25.1899H25V24.1799Z" fill="#8A8A8A"/>
<path d="M29 24.1799H28V25.1899H29V24.1799Z" fill="#8A8A8A"/>
<path d="M3 26.2H2V27.2099H3V26.2Z" fill="#8A8A8A"/>
<path d="M7 26.2H6V27.2099H7V26.2Z" fill="#8A8A8A"/>
<path d="M11 26.2H10V27.2099H11V26.2Z" fill="#8A8A8A"/>
<path d="M15 26.2H14V27.2099H15V26.2Z" fill="#8A8A8A"/>
<path d="M19 26.2H18V27.2099H19V26.2Z" fill="#8A8A8A"/>
<path d="M23 26.2H22V27.2099H23V26.2Z" fill="#8A8A8A"/>
<path d="M27 26.2H26V27.2099H27V26.2Z" fill="#8A8A8A"/>
<path d="M31 26.2H30V27.2099H31V26.2Z" fill="#8A8A8A"/>
<path d="M1 28.22H0V29.23H1V28.22Z" fill="#8A8A8A"/>
<path d="M5 28.22H4V29.23H5V28.22Z" fill="#8A8A8A"/>
<path d="M9 28.22H8V29.23H9V28.22Z" fill="#8A8A8A"/>
<path d="M13 28.22H12V29.23H13V28.22Z" fill="#8A8A8A"/>
<path d="M17 28.22H16V29.23H17V28.22Z" fill="#8A8A8A"/>
<path d="M21 28.22H20V29.23H21V28.22Z" fill="#8A8A8A"/>
<path d="M25 28.22H24V29.23H25V28.22Z" fill="#8A8A8A"/>
<path d="M29 28.22H28V29.23H29V28.22Z" fill="#8A8A8A"/>
<path d="M3 30.23H2V31.24H3V30.23Z" fill="#8A8A8A"/>
<path d="M7 30.23H6V31.24H7V30.23Z" fill="#8A8A8A"/>
<path d="M11 30.23H10V31.24H11V30.23Z" fill="#8A8A8A"/>
<path d="M15 30.23H14V31.24H15V30.23Z" fill="#8A8A8A"/>
<path d="M19 30.23H18V31.24H19V30.23Z" fill="#8A8A8A"/>
<path d="M23 30.23H22V31.24H23V30.23Z" fill="#8A8A8A"/>
<path d="M27 30.23H26V31.24H27V30.23Z" fill="#8A8A8A"/>
<path d="M31 30.23H30V31.24H31V30.23Z" fill="#8A8A8A"/>
<path d="M1 32.25H0V33.26H1V32.25Z" fill="#8A8A8A"/>
<path d="M5 32.25H4V33.26H5V32.25Z" fill="#8A8A8A"/>
<path d="M9 32.25H8V33.26H9V32.25Z" fill="#8A8A8A"/>
<path d="M13 32.25H12V33.26H13V32.25Z" fill="#8A8A8A"/>
<path d="M17 32.25H16V33.26H17V32.25Z" fill="#8A8A8A"/>
<path d="M21 32.25H20V33.26H21V32.25Z" fill="#8A8A8A"/>
<path d="M25 32.25H24V33.26H25V32.25Z" fill="#8A8A8A"/>
<path d="M29 32.25H28V33.26H29V32.25Z" fill="#8A8A8A"/>
<path d="M3 34.26H2V35.27H3V34.26Z" fill="#8A8A8A"/>
<path d="M7 34.26H6V35.27H7V34.26Z" fill="#8A8A8A"/>
<path d="M11 34.26H10V35.27H11V34.26Z" fill="#8A8A8A"/>
<path d="M15 34.26H14V35.27H15V34.26Z" fill="#8A8A8A"/>
<path d="M19 34.26H18V35.27H19V34.26Z" fill="#8A8A8A"/>
<path d="M23 34.26H22V35.27H23V34.26Z" fill="#8A8A8A"/>
<path d="M27 34.26H26V35.27H27V34.26Z" fill="#8A8A8A"/>
<path d="M31 34.26H30V35.27H31V34.26Z" fill="#8A8A8A"/>
<path d="M1 36.28H0V37.29H1V36.28Z" fill="#8A8A8A"/>
<path d="M5 36.28H4V37.29H5V36.28Z" fill="#8A8A8A"/>
<path d="M9 36.28H8V37.29H9V36.28Z" fill="#8A8A8A"/>
<path d="M13 36.28H12V37.29H13V36.28Z" fill="#8A8A8A"/>
<path d="M17 36.28H16V37.29H17V36.28Z" fill="#8A8A8A"/>
<path d="M21 36.28H20V37.29H21V36.28Z" fill="#8A8A8A"/>
<path d="M25 36.28H24V37.29H25V36.28Z" fill="#8A8A8A"/>
<path d="M29 36.28H28V37.29H29V36.28Z" fill="#8A8A8A"/>
<path d="M3 38.29H2V39.3H3V38.29Z" fill="#8A8A8A"/>
<path d="M7 38.29H6V39.3H7V38.29Z" fill="#8A8A8A"/>
<path d="M11 38.29H10V39.3H11V38.29Z" fill="#8A8A8A"/>
<path d="M15 38.29H14V39.3H15V38.29Z" fill="#8A8A8A"/>
<path d="M19 38.29H18V39.3H19V38.29Z" fill="#8A8A8A"/>
<path d="M23 38.29H22V39.3H23V38.29Z" fill="#8A8A8A"/>
<path d="M27 38.29H26V39.3H27V38.29Z" fill="#8A8A8A"/>
<path d="M31 38.29H30V39.3H31V38.29Z" fill="#8A8A8A"/>
<path d="M1 40.3101H0V41.3201H1V40.3101Z" fill="#8A8A8A"/>
<path d="M5 40.3101H4V41.3201H5V40.3101Z" fill="#8A8A8A"/>
<path d="M9 40.3101H8V41.3201H9V40.3101Z" fill="#8A8A8A"/>
<path d="M19 122.94H18V123.95H19V122.94Z" fill="#8A8A8A"/>
<path d="M29 128.98H28V129.99H29V128.98Z" fill="#8A8A8A"/>
</g>
<defs>
<clipPath id="clip0_500_34777">
<rect width="31" height="129.99" fill="white"/>
</clipPath>
</defs>
</svg>
