<svg width="142" height="18" viewBox="0 0 142 18" fill="none" xmlns="http://www.w3.org/2000/svg">
<g clip-path="url(#clip0_1716_10802)">
<path d="M9.36096 5.66602V8.24676H0.0390625V5.66602H9.36096ZM0.0390625 12.8293V10.2486H9.36096V12.8293H0.0390625Z" fill="#F1F1F1"/>
<path d="M17.2716 5.94087C16.3165 5.94087 15.6611 6.34319 15.3054 7.14785C15.121 7.57307 15.0287 8.11603 15.0287 8.77675V14.5663H12.2227V3.88999H14.9398V5.45023C15.3021 4.90071 15.6446 4.50492 15.9674 4.26287C16.547 3.83111 17.2815 3.61523 18.1708 3.61523C19.2839 3.61523 20.193 3.90634 20.8977 4.48857C21.6092 5.06426 21.9649 6.02264 21.9649 7.36372V14.5663H19.0797V8.06042C19.0797 7.49783 19.004 7.06607 18.8525 6.76514C18.5758 6.21563 18.0489 5.94087 17.2716 5.94087Z" fill="#F1F1F1"/>
<path d="M26.4571 3.8706V14.5665H23.6016V3.8706H26.4571ZM26.4571 0.0141602V2.82012H23.6016V0.0141602H26.4571Z" fill="#F1F1F1"/>
<path d="M28.2422 0.102539H31.0582V14.5666H28.2422V0.102539Z" fill="#F1F1F1"/>
<path d="M34.7752 17.677C34.3009 17.8733 33.9716 17.9714 33.7871 17.9714V16.892C34.4524 16.7023 34.9168 16.3653 35.1803 15.8812C35.345 15.5803 35.4504 15.142 35.4965 14.5663H33.9919V11.7377H36.8303V14.1738C36.8303 14.6252 36.771 15.0897 36.6525 15.5673C36.5339 16.0514 36.3132 16.47 35.9905 16.8233C35.6546 17.1962 35.2495 17.4807 34.7752 17.677ZM36.7698 7.21654H33.9456V4.37305H36.7698V7.21654Z" fill="#F1F1F1"/>
<path d="M53.7021 2.66358H46.4004V5.99013H52.7931V8.50219H46.4004V14.5665H43.377V0.12207H53.7021V2.66358Z" fill="#F1F1F1"/>
<path d="M63.4891 5.22447C64.3981 6.35621 64.8526 7.694 64.8526 9.23794C64.8526 10.8079 64.3981 12.1523 63.4891 13.2709C62.5801 14.3831 61.2001 14.9391 59.3492 14.9391C57.4982 14.9391 56.1182 14.3831 55.2092 13.2709C54.3002 12.1523 53.8457 10.8079 53.8457 9.23794C53.8457 7.694 54.3002 6.35621 55.2092 5.22447C56.1182 4.09272 57.4982 3.52686 59.3492 3.52686C61.2001 3.52686 62.5801 4.09272 63.4891 5.22447ZM59.3393 5.89174C58.5159 5.89174 57.8802 6.18285 57.4323 6.76508C56.991 7.34077 56.7704 8.16507 56.7704 9.23794C56.7704 10.3107 56.991 11.1384 57.4323 11.7206C57.8802 12.3028 58.5159 12.5939 59.3393 12.5939C60.1626 12.5939 60.795 12.3028 61.2363 11.7206C61.6777 11.1384 61.8984 10.3107 61.8984 9.23794C61.8984 8.16507 61.6777 7.34077 61.2363 6.76508C60.795 6.18285 60.1626 5.89174 59.3393 5.89174Z" fill="#F1F1F1"/>
<path d="M72.7727 13.0554C72.7464 13.0881 72.6805 13.1862 72.5751 13.3497C72.4697 13.5134 72.3446 13.6573 72.1996 13.7815C71.7583 14.1741 71.3301 14.4422 70.9151 14.5862C70.5067 14.7301 70.0259 14.8021 69.4726 14.8021C67.8786 14.8021 66.8048 14.2329 66.2515 13.0946C65.9419 12.4666 65.7871 11.5409 65.7871 10.3176V3.87061H68.6722V10.3176C68.6722 10.926 68.7447 11.3839 68.8896 11.6914C69.1465 12.2344 69.6504 12.5059 70.4014 12.5059C71.363 12.5059 72.0218 12.1199 72.3775 11.348C72.5619 10.9292 72.6541 10.3765 72.6541 9.68962V3.87061H75.5096V14.5665H72.7727V13.0554Z" fill="#F1F1F1"/>
<path d="M82.2953 5.94087C81.3401 5.94087 80.6845 6.34319 80.3291 7.14785C80.1445 7.57307 80.0526 8.11603 80.0526 8.77675V14.5663H77.2461V3.88999H79.9629V5.45023C80.3252 4.90071 80.6684 4.50492 80.9909 4.26287C81.5707 3.83111 82.3052 3.61523 83.1945 3.61523C84.3075 3.61523 85.2166 3.90634 85.9213 4.48857C86.6329 5.06426 86.9883 6.02264 86.9883 7.36372V14.5663H84.1029V8.06042C84.1029 7.49783 84.0279 7.06607 83.8762 6.76514C83.5997 6.21563 83.0727 5.94087 82.2953 5.94087Z" fill="#F1F1F1"/>
<path d="M98.3854 0.12207V14.5665H95.6487V13.0848C95.2465 13.7194 94.7893 14.1805 94.2753 14.4684C93.7613 14.7562 93.1225 14.9002 92.3581 14.9002C91.1004 14.9002 90.0396 14.3965 89.1771 13.389C88.3207 12.375 87.8926 11.0764 87.8926 9.49327C87.8926 7.66814 88.3139 6.23218 89.1572 5.18548C90.0066 4.13878 91.1395 3.61543 92.5557 3.61543C93.2083 3.61543 93.7874 3.75936 94.2952 4.04719C94.8023 4.32849 95.2136 4.72101 95.5299 5.22473V0.12207H98.3854ZM90.7971 9.28722C90.7971 10.2751 90.9947 11.0633 91.3899 11.6521C91.779 12.2474 92.3719 12.5451 93.1685 12.5451C93.9659 12.5451 94.5717 12.2507 94.9869 11.6619C95.4013 11.0731 95.6088 10.311 95.6088 9.37554C95.6088 8.06721 95.2764 7.13169 94.6108 6.56909C94.2025 6.22891 93.7284 6.05882 93.1884 6.05882C92.365 6.05882 91.7591 6.36955 91.37 6.99104C90.9886 7.60597 90.7971 8.37137 90.7971 9.28722Z" fill="#F1F1F1"/>
<path d="M100.348 5.02828C101.092 4.08624 102.37 3.61523 104.181 3.61523C105.36 3.61523 106.408 3.84747 107.323 4.31194C108.239 4.77642 108.697 5.65303 108.697 6.94177V11.8482C108.697 12.1883 108.703 12.6005 108.716 13.0846C108.736 13.4509 108.792 13.6996 108.884 13.8304C108.977 13.9612 109.115 14.0691 109.299 14.1542V14.5663H106.236C106.151 14.3505 106.092 14.1476 106.059 13.9579C106.026 13.7682 105.999 13.5523 105.98 13.3103C105.591 13.729 105.143 14.0855 104.635 14.3799C104.03 14.7266 103.345 14.9 102.58 14.9C101.605 14.9 100.799 14.6252 100.16 14.0757C99.5273 13.5196 99.2109 12.7346 99.2109 11.7206C99.2109 10.4057 99.7218 9.45385 100.743 8.86506C101.303 8.54451 102.126 8.31556 103.213 8.17815L104.171 8.06042C104.691 7.99501 105.064 7.91321 105.288 7.81509C105.689 7.64503 105.891 7.38008 105.891 7.02028C105.891 6.58197 105.735 6.28104 105.426 6.1175C105.123 5.94741 104.675 5.86236 104.082 5.86236C103.417 5.86236 102.947 6.02591 102.669 6.353C102.472 6.59505 102.34 6.92215 102.274 7.33429H99.5572C99.6161 6.3988 99.8796 5.63013 100.348 5.02828ZM102.443 12.5449C102.706 12.7608 103.028 12.8687 103.411 12.8687C104.017 12.8687 104.573 12.6921 105.08 12.3388C105.594 11.9856 105.861 11.3412 105.881 10.4057V9.36554C105.702 9.47675 105.522 9.56836 105.337 9.64029C105.159 9.7057 104.913 9.76789 104.596 9.82672L103.964 9.94452C103.371 10.0492 102.947 10.1768 102.689 10.3272C102.255 10.5823 102.037 10.9781 102.037 11.5145C102.037 11.9921 102.172 12.3355 102.443 12.5449Z" fill="#F1F1F1"/>
<path d="M115.125 12.5746V14.6647L113.791 14.7138C112.46 14.7596 111.551 14.5305 111.064 14.0268C110.748 13.7063 110.59 13.2124 110.59 12.5451V5.19477H109.088V3.20276H110.59V0.0141602H113.376V3.20276H115.125V5.19477H113.376V11.6129C113.376 12.0512 113.432 12.326 113.544 12.4372C113.656 12.5418 113.998 12.5942 114.571 12.5942C114.657 12.5942 114.746 12.5942 114.838 12.5942C114.937 12.5876 115.032 12.5811 115.125 12.5746Z" fill="#F1F1F1"/>
<path d="M129.524 5.22447C130.433 6.35621 130.888 7.694 130.888 9.23794C130.888 10.8079 130.433 12.1523 129.524 13.2709C128.615 14.3831 127.235 14.9391 125.384 14.9391C123.533 14.9391 122.153 14.3831 121.244 13.2709C120.335 12.1523 119.881 10.8079 119.881 9.23794C119.881 7.694 120.335 6.35621 121.244 5.22447C122.153 4.09272 123.533 3.52686 125.384 3.52686C127.235 3.52686 128.615 4.09272 129.524 5.22447ZM125.374 5.89174C124.551 5.89174 123.915 6.18285 123.467 6.76508C123.026 7.34077 122.805 8.16507 122.805 9.23794C122.805 10.3107 123.026 11.1384 123.467 11.7206C123.915 12.3028 124.551 12.5939 125.374 12.5939C126.198 12.5939 126.83 12.3028 127.272 11.7206C127.713 11.1384 127.933 10.3107 127.933 9.23794C127.933 8.16507 127.713 7.34077 127.272 6.76508C126.83 6.18285 126.198 5.89174 125.374 5.89174Z" fill="#F1F1F1"/>
<path d="M136.969 5.94087C136.014 5.94087 135.358 6.34319 135.003 7.14785C134.818 7.57307 134.726 8.11603 134.726 8.77675V14.5663H131.92V3.88999H134.638V5.45023C135 4.90071 135.342 4.50492 135.665 4.26287C136.245 3.83111 136.979 3.61523 137.868 3.61523C138.981 3.61523 139.89 3.90634 140.595 4.48857C141.307 5.06426 141.662 6.02264 141.662 7.36372V14.5663H138.778V8.06042C138.778 7.49783 138.702 7.06607 138.55 6.76514C138.274 6.21563 137.747 5.94087 136.969 5.94087Z" fill="#F1F1F1"/>
<path d="M118.811 3.8706V14.5665H115.955V3.8706H118.811ZM118.811 0.0141602V2.82012H115.955V0.0141602H118.811Z" fill="#F1F1F1"/>
</g>
<defs>
<clipPath id="clip0_1716_10802">
<rect width="141.702" height="18" fill="white"/>
</clipPath>
</defs>
</svg>
